<?xml version="1.0" encoding="UTF-8"?><svg id="Layer_1" xmlns="http://www.w3.org/2000/svg" viewBox="0 0 512 512"><path d="M164.25,327.77c-11.21.01-20.29,9.11-20.28,20.32.01,11.21,9.11,20.29,20.32,20.28,11.2-.01,20.28-9.1,20.28-20.3-.02-11.21-9.11-20.29-20.32-20.3ZM164.25,358.36c-5.69-.01-10.29-4.63-10.28-10.32.01-5.69,4.63-10.29,10.32-10.28,5.68.01,10.28,4.62,10.28,10.3-.01,5.69-4.63,10.3-10.32,10.3Z"/><path d="M163.37,321.9c2.76,0,5-2.24,5-5v-17.1c0-2.76-2.24-5-5-5s-5,2.24-5,5v17.1c0,2.76,2.24,5,5,5Z"/><path d="M163.37,375.13c-2.76,0-5,2.24-5,5v17.1c0,2.76,2.24,5,5,5s5-2.24,5-5v-17.1c0-2.76-2.24-5-5-5Z"/><path d="M190.43,337.1c.91,0,1.81-.25,2.59-.73l14.63-8.88c2.35-1.46,3.07-4.54,1.61-6.88-1.44-2.31-4.46-3.05-6.8-1.66l-14.63,8.88c-2.36,1.43-3.12,4.51-1.68,6.87.91,1.5,2.53,2.41,4.28,2.41h0Z"/><path d="M133.72,360.66l-14.64,8.88c-2.37,1.41-3.16,4.48-1.75,6.85,1.41,2.37,4.48,3.16,6.85,1.75.03-.02.06-.03.08-.05l14.64-8.88c2.35-1.46,3.07-4.54,1.61-6.88-1.44-2.31-4.46-3.05-6.8-1.66Z"/><path d="M186.27,362.13c-1.41,2.37-.63,5.44,1.74,6.85l14.71,8.75c2.37,1.41,5.44.63,6.85-1.74,1.41-2.37.63-5.44-1.74-6.86l-14.71-8.75c-2.37-1.41-5.44-.63-6.85,1.75,0,0,0,0,0,0h0Z"/><path d="M140.47,334.9c1.41-2.37.63-5.44-1.74-6.85l-14.71-8.75c-2.37-1.41-5.44-.63-6.86,1.74-1.41,2.37-.63,5.44,1.74,6.86l14.71,8.75c2.37,1.41,5.44.63,6.85-1.74,0,0,0,0,0,0h0Z"/><path d="M412.62,331.8c1.19,0,2.35-.42,3.25-1.2,22.24-19.05,23.01-49.81,23.03-51.11.04-2.75-2.15-5.02-4.91-5.08-2.75-.03-5.01,2.15-5.09,4.9,0,.27-.77,27.61-19.54,43.69-2.1,1.79-2.35,4.95-.55,7.05.95,1.11,2.34,1.75,3.81,1.75h0Z"/><path d="M478.44,62.5c-21.59-12.62-49.31-5.73-62.49,15.53l-87.34,142.46h-27.38c9.99-14.46,11.32-33.3,3.74-55.19-4.4-12.32-10.54-23.95-18.23-34.54l-.05-.07c-1.68-2.19-4.82-2.61-7.01-.93-2.19,1.68-2.61,4.82-.93,7.01l.02.03c.1.18,3.45,9.07-13.89,29.77-.9,1.08-1.74,2.18-2.55,3.31-23.25-28.16-58.12-23.41-59.69-23.18-2.73.4-4.62,2.94-4.22,5.68.33,2.21,2.08,3.94,4.3,4.23.09.01,8.84,3.8,11.24,30.87,1.45,16.37,8.2,26.64,15.34,33.01h-96.69c-5.24.01-9.75,3.71-10.78,8.85-2.03,10.24-7.22,43.66,3.27,75.95-16.62-4.26-28.92-.56-29.67-.33-2.54.8-4.01,3.45-3.34,6.02,4.51,17.42,20.59,30.57,30.4,37.19-9.91,6.19-18.19,14.67-24.14,24.72l-11.8-31.47c-1.09-2.91-4.33-4.38-7.23-3.29-1.06.4-1.98,1.11-2.63,2.03-1.87-1.15-3.83-2.16-5.85-3.03-22.1-9.48-47.49,0-56.58,21.14-4.27,9.97-4.38,21.24-.29,31.28,4.4,10.96,13,19.7,23.88,24.27,2.34,1,4.75,1.81,7.22,2.41-1.05,2.92.46,6.13,3.38,7.18,1.3.47,2.73.44,4.01-.08l30.96-12.44,34.74,14.91c6.11,2.62,13.19-.2,15.82-6.3l6.06-14.08c2.63-6.1-.19-13.18-6.3-15.81,0,0-.01,0-.02,0l-.93-.4c3.7-1.53,7.25-3.41,10.6-5.6-.16,12.69,2.18,32.87,16.47,46.81,1.96,1.91,5.09,1.89,7.02-.04.66-.66,14.34-14.63,16.57-41.89l.24.4c4.86,8.32,10.26,17.55,12.94,23.93-3.43,3.09-4.79,7.87-3.48,12.3l4.31,14.71c1.88,6.37,8.56,10.02,14.94,8.17l36.24-10.6,30.87,17.73c2.69,1.55,6.12.63,7.67-2.06.56-.98.82-2.11.73-3.24,2.18-.31,4.33-.77,6.43-1.39,10.19-2.92,19-9.39,24.84-18.23h79.3c6.83.03,12.75-4.7,14.23-11.37,3.23-14.32,13.36-42.95,44.86-73.79,39.43-38.6,31.26-98.33,27.81-115.72-1.03-5.14-5.54-8.84-10.78-8.85h-23.32l45.52-99.47c9.81-21.34,1.85-46.63-18.4-58.51h0ZM272.56,173c7.87-9.39,12.22-17.03,14.47-23.11,9.8,17.75,22.28,49.58,1.19,70.6h-3.36c6.73-16.44,3.99-39.29,3.84-40.42-.34-2.74-2.84-4.68-5.58-4.34s-4.68,2.84-4.34,5.58c.93,7.5,1.67,28.28-5.06,39.18h-6.89c-3.11-7.23-10.11-28.58,5.73-47.49h0ZM223.95,186.6c-1.31-14.81-4.45-24.13-7.89-30,11.43,1.12,28.68,5.81,40.9,22.66-2.39,5.38-3.82,11.13-4.25,16.99-3.78-7.05-8.25-13.72-13.33-19.9-1.81-2.09-4.97-2.31-7.05-.5-2.07,1.79-2.31,4.92-.54,7.01.16.19,15.18,17.95,19.79,37.62h-1.99c-2.88-.65-23.19-6.26-25.63-33.88h0ZM50.89,407.19c-3.13-.44-6.18-1.29-9.08-2.54-8.44-3.53-15.12-10.3-18.53-18.79-3.1-7.58-3.03-16.09.18-23.62,6.92-16.08,26.42-23.21,43.46-15.9,2.56,1.1,4.98,2.49,7.21,4.15l-3.97,19.67-25.09-4.33c-.15-.02-.3-.05-.44-.06-3.1-.25-5.81,2.06-6.06,5.15-.14,1.75.54,3.47,1.85,4.65l19.22,18.46-8.75,13.16ZM130.87,401.48l-6.06,14.08c-.45,1.04-1.65,1.52-2.69,1.07l-36.65-15.73c-1.22-.52-2.6-.54-3.84-.05l-19.82,7.97,8.47-12.73c1.34-2.01,1.04-4.7-.7-6.38l-12.07-11.59,15.75,2.72c2.67.46,5.22-1.29,5.75-3.94l3.56-17.66,7.88,21c.48,1.28,1.46,2.3,2.71,2.84l.21.09c-.39.98-.77,1.95-1.12,2.97-.91,2.61.47,5.46,3.08,6.36.11.04.22.07.33.1,7.09,1.61,14.41,1.88,21.6.81l12.56,5.39c1.03.44,1.51,1.63,1.07,2.66,0,0,0,0,0,0h0ZM176.44,372.15c-1.76.89-2.83,2.72-2.74,4.69.99,21.73-6.11,35.72-10.52,42.23-13.53-17.98-9-45.23-8.95-45.52.48-2.72-1.34-5.31-4.06-5.79-1.54-.27-3.12.19-4.27,1.26-15.94,14.8-33.26,15.61-41.97,14.84,6.2-13.52,17.02-24.39,30.5-30.67,2.58-.99,3.87-3.88,2.88-6.46-.44-1.14-1.27-2.08-2.35-2.64-.25-.13-23.38-12.46-31.38-30.54,7.97-.94,24.14-.62,41.47,12.48,2.2,1.67,5.34,1.23,7-.97.85-1.13,1.19-2.56.93-3.94-.05-.27-4.54-25.28,11.11-41.82,3.86,6.35,10.12,20.02,9.61,41.29-.07,2.76,2.12,5.05,4.88,5.12,1.09.03,2.16-.31,3.05-.95.25-.18,23.32-16.57,44.42-11.69-4.27,9.25-15.04,28.69-30.4,29.48-2.76.13-4.89,2.48-4.75,5.24.09,1.8,1.14,3.41,2.75,4.22,12.95,7.51,23.42,18.67,30.09,32.08-14.87,1.33-29.73-2.7-41.9-11.35-1.53-1.24-3.64-1.46-5.4-.58h0ZM251.8,427.67c-1.18-.68-2.59-.85-3.89-.46l-38.29,11.19c-1.08.32-2.22-.3-2.54-1.38l-4.31-14.71c-.31-1.08.31-2.21,1.39-2.52l38.29-11.19c1.28-.37,2.35-1.24,2.99-2.41l10.2-18.76,1.6,15.22c.25,2.4,2.19,4.28,4.6,4.46l16.71,1.26-13.86,7.92c-2.35,1.34-3.21,4.32-1.93,6.71l8.51,15.86-19.46-11.17ZM311.84,423.14c-4.48,7.65-11.74,13.27-20.27,15.7-2.68.78-5.43,1.25-8.22,1.39l-9.49-17.68,22.09-12.62c.13-.07.25-.15.37-.24,2.55-1.77,3.18-5.28,1.41-7.83-1.01-1.45-2.63-2.34-4.4-2.41l-26.6-2-1.65-15.7c2.69-1.65,5.59-2.93,8.61-3.82,17.8-5.2,36.29,4.23,41.21,21.02,2.36,8.14,1.25,16.9-3.08,24.19h0ZM450.61,337.91c-33.34,32.64-44.14,63.34-47.62,78.73-.47,2.09-2.33,3.58-4.48,3.57h-74.44c2.61-7.79,2.76-16.19.44-24.07-6.48-22.08-30.53-34.56-53.62-27.81-2.44.71-4.82,1.63-7.11,2.74-1.05-2.92-4.26-4.44-7.18-3.39-1.3.47-2.39,1.4-3.04,2.61l-15.93,29.29-31.8,9.3c-2.75-6.09-5.84-12.02-9.26-17.76,11.45,3.64,23.64,4.25,35.4,1.79,2.7-.57,4.43-3.22,3.87-5.92-.06-.28-.14-.55-.24-.81-5.79-14.51-15.38-27.2-27.76-36.74,19.11-9.33,29.15-36.41,29.64-37.76.92-2.53-.33-5.32-2.81-6.34-19.38-7.89-40.17.57-51.13,6.53-1.68-28.43-14.37-42.78-14.96-43.44-1.77-1.96-4.77-2.2-6.83-.55-16.52,13.2-19.43,32.48-19.44,44.39-1.64-.93-3.26-1.76-4.87-2.52-7.14-17.08-8.9-35.28-8.67-50.13h349.77c.36,23.66-4.47,55.32-27.93,78.29ZM474.64,230.49c.47,0,.88.34.97.8,1.18,6.06,2,12.18,2.47,18.34H129.23c.45-6.15,1.27-12.28,2.44-18.34.09-.46.5-.8.97-.8h342ZM440.32,220.49h-99.98l59.08-96.36,67.06,39.19-26.16,57.16ZM470.66,154.19l-66.01-38.59,4.56-7.44,65.48,37.23-4.03,8.8ZM487.75,116.85l-8.88,19.4-64.43-36.62,10.04-16.38c10.35-16.9,32.44-22.22,49.34-11.87,15.46,9.46,21.43,28.97,13.92,45.47h0Z"/></svg>