<?xml version="1.0" encoding="UTF-8"?><svg id="Capa_1" xmlns="http://www.w3.org/2000/svg" viewBox="0 0 512 512"><defs><style>.cls-1{fill:none;stroke:#000;stroke-linecap:round;stroke-linejoin:round;stroke-width:20px;}</style></defs><path d="M382.39,82.78h-34.34v38.01c0,3.93,3.19,7.12,7.12,7.12h20.1c3.93,0,7.12-3.19,7.12-7.12v-38.01h0Z"/><path d="M256,462h0c-11.05,0-20-8.95-20-20v-125.87c0-11.05,8.95-20,20-20h0c11.05,0,20,8.95,20,20v125.87c0,11.05-8.95,20-20,20Z"/><path d="M326.1,462h0c-11.05,0-20-8.95-20-20v-125.87c0-11.05,8.95-20,20-20h0c11.05,0,20,8.95,20,20v125.87c0,11.05-8.95,20-20,20Z"/><path d="M185.9,462h0c11.05,0,20-8.95,20-20v-125.87c0-11.05-8.95-20-20-20h0c-11.05,0-20,8.95-20,20v125.87c0,11.05,8.95,20,20,20Z"/><path d="M115.81,462h0c11.05,0,20-8.95,20-20v-125.87c0-11.05-8.95-20-20-20h0c-11.05,0-20,8.95-20,20v125.87c0,11.05,8.95,20,20,20Z"/><path d="M396.19,462h0c-11.05,0-20-8.95-20-20v-125.87c0-11.05,8.95-20,20-20h0c11.05,0,20,8.95,20,20v125.87c0,11.05-8.95,20-20,20Z"/><polyline class="cls-1" points="448 201.18 448 82.78 346.9 82.78"/><polyline class="cls-1" points="288.05 111.64 288.05 10 204.99 10 204.99 200.97"/><path class="cls-1" d="M291.85,202h195.43c8.13,0,14.72,6.59,14.72,14.72v24.56c0,8.13-6.59,14.72-14.72,14.72H24.72c-8.13,0-14.72-6.59-14.72-14.72v-24.56c0-8.13,6.59-14.72,14.72-14.72h218.99"/><path class="cls-1" d="M37.56,256.13l18.05,208.33c1.84,21.24,19.62,37.54,40.94,37.54h159.45"/><path class="cls-1" d="M474.45,256.13l-18.05,208.33c-1.84,21.24-19.62,37.54-40.94,37.54h-159.45"/><path class="cls-1" d="M245.75,203.64l72.04-154.65c4.67-10.01,16.56-14.35,26.58-9.68,10.01,4.66,14.35,16.56,9.68,26.58l-71.67,153.84"/><circle class="cls-1" cx="256" cy="229" r="27"/><polyline class="cls-1" points="203.99 120.79 58.02 120.79 58.02 201"/></svg>