<?xml version="1.0" encoding="UTF-8"?><svg xmlns="http://www.w3.org/2000/svg" viewBox="0 0 491.52 491.52"><defs><style>.cls-1{fill-rule:evenodd;}</style></defs><g id="Layer_1" image-rendering="optimizeQuality" shape-rendering="geometricPrecision" text-rendering="geometricPrecision"><g id="Layer_1-2"><g id="_219153216"><path id="_219154872" class="cls-1" d="M389.68,414.35h63.57v-233.36l-31.78-60.41-31.78,60.41v233.36ZM457.98,423.83h-73.04c-2.62,0-4.74-2.12-4.74-4.73v-239.26c0-.77.19-1.52.54-2.2l36.52-69.42c.82-1.56,2.43-2.53,4.19-2.53,1.76,0,3.37.97,4.19,2.53l36.52,69.41c.36.68.54,1.44.54,2.21v239.26c0,2.62-2.12,4.74-4.74,4.74h0Z"/><path id="_219154296" class="cls-1" d="M254.97,253.85c-2.62,0-4.74-2.12-4.74-4.74v-69.29c0-2.62,2.12-4.73,4.74-4.73h129.97c2.62,0,4.74,2.12,4.74,4.74s-2.12,4.74-4.74,4.74h-125.23s0,64.55,0,64.55c0,2.62-2.12,4.74-4.74,4.74h0Z"/><path id="_219154008" class="cls-1" d="M254.97,184.57c-.74,0-1.5-.17-2.2-.54-2.32-1.22-3.2-4.08-1.99-6.4l36.52-69.42c.82-1.56,2.43-2.53,4.19-2.53h129.97c2.62,0,4.74,2.12,4.74,4.74s-2.12,4.74-4.74,4.74h-127.11s-35.19,66.88-35.19,66.88c-.85,1.61-2.49,2.53-4.2,2.53h0Z"/><path id="_219153840" class="cls-1" d="M421.46,115.15c-2.62,0-4.74-2.12-4.74-4.74v-33.21h-120.5v33.21c0,2.62-2.12,4.74-4.74,4.74-2.62,0-4.74-2.12-4.74-4.74v-37.95c0-2.62,2.12-4.73,4.74-4.73h129.97c2.62,0,4.74,2.12,4.74,4.74v37.95c0,2.62-2.12,4.74-4.74,4.74h0Z"/><path id="_219153648" class="cls-1" d="M179.41,288.06c-2.62,0-4.74-2.12-4.74-4.74v-95.3c0-8.52-8.36-15.36-17.22-22.59-9.85-8.05-21.01-17.17-21.01-30.54v-22.69c0-2.62,2.12-4.74,4.74-4.74,2.62,0,4.74,2.12,4.74,4.74v22.69c0,8.88,8.51,15.84,17.53,23.21,10.18,8.31,20.7,16.91,20.7,29.93v95.3c0,2.62-2.12,4.74-4.74,4.74h0ZM110.53,423.83h-55.41c-14.51,0-26.32-11.81-26.32-26.32v-209.48c0-13.02,10.52-21.62,20.7-29.93,9.01-7.37,17.53-14.33,17.53-23.21v-22.69c0-2.62,2.12-4.74,4.74-4.74,2.62,0,4.74,2.12,4.74,4.74v22.69c0,13.38-11.16,22.5-21.01,30.55-8.85,7.24-17.22,14.07-17.22,22.59v209.48c0,9.29,7.56,16.85,16.85,16.85h55.41c2.62,0,4.74,2.12,4.74,4.74s-2.12,4.74-4.74,4.74Z"/><path id="_219153936" class="cls-1" d="M67.43,77.16c-2.2,0-3.99,1.79-3.99,4v22.31c0,2.2,1.79,3.99,3.99,3.99h78.1c2.2,0,3.99-1.79,3.99-3.99v-22.31c0-2.2-1.79-3.99-3.99-3.99h-78.1ZM145.52,116.93h-78.1c-7.43,0-13.47-6.04-13.47-13.47v-22.31c0-7.43,6.04-13.47,13.47-13.47h78.1c7.43,0,13.47,6.04,13.47,13.47v22.31c0,7.43-6.04,13.47-13.47,13.47Z"/><path id="_219153792" class="cls-1" d="M115.26,414.35h213.23v-95.11H115.26v9.43c7.58,2.08,13.16,9.03,13.16,17.26s-5.58,15.18-13.16,17.26v7.2c7.58,2.08,13.16,9.03,13.16,17.26s-5.58,15.18-13.16,17.26v9.43ZM333.23,423.83H110.53c-2.62,0-4.74-2.12-4.74-4.74v-18.27c0-2.62,2.12-4.74,4.74-4.74,4.64,0,8.42-3.78,8.42-8.42,0-4.64-3.78-8.42-8.42-8.42-2.62,0-4.74-2.12-4.74-4.74v-15.4c0-2.62,2.12-4.74,4.74-4.74,4.64,0,8.42-3.78,8.42-8.42,0-4.65-3.78-8.42-8.42-8.42-2.62,0-4.74-2.12-4.74-4.74v-18.27c0-2.62,2.12-4.73,4.74-4.73h222.71c2.62,0,4.74,2.12,4.74,4.74v104.58c0,2.62-2.12,4.74-4.74,4.74h0Z"/><path id="_219153720" class="cls-1" d="M110.53,319.24c-1.8,0-3.53-1.03-4.32-2.78-1.08-2.38-.02-5.19,2.36-6.27l164.75-74.59c1.17-.53,2.51-.56,3.7-.09,33.01,13.12,56.35,43.15,60.91,78.38.34,2.59-1.5,4.97-4.09,5.31-2.6.34-4.97-1.5-5.31-4.09-4.03-31.16-24.33-57.82-53.17-70.03l-162.89,73.74c-.63.29-1.3.42-1.95.42h0Z"/><path id="_219153480" class="cls-1" d="M247.53,379.56c-4.65,0-8.42,3.78-8.42,8.42,0,4.64,3.78,8.42,8.42,8.42,4.64,0,8.42-3.78,8.42-8.42s-3.78-8.42-8.42-8.42ZM247.53,405.88c-9.87,0-17.9-8.03-17.9-17.9s8.03-17.9,17.9-17.9c9.87,0,17.9,8.03,17.9,17.9,0,9.87-8.03,17.9-17.9,17.9Z"/><path id="_219153432" class="cls-1" d="M293.92,341.9c-4.65,0-8.42,3.78-8.42,8.42,0,4.64,3.78,8.42,8.42,8.42,4.64,0,8.42-3.78,8.42-8.42s-3.78-8.42-8.42-8.42ZM293.92,368.22c-9.87,0-17.9-8.03-17.9-17.9s8.03-17.9,17.9-17.9c9.87,0,17.9,8.03,17.9,17.9s-8.03,17.9-17.9,17.9Z"/><path id="_219154056" class="cls-1" d="M210.37,337.91c-4.65,0-8.42,3.78-8.42,8.43s3.78,8.42,8.42,8.42,8.42-3.78,8.42-8.42-3.78-8.42-8.42-8.43ZM210.37,364.23c-9.87,0-17.9-8.03-17.9-17.9s8.03-17.9,17.9-17.9c9.87,0,17.9,8.03,17.9,17.9,0,9.87-8.03,17.9-17.9,17.9Z"/><path id="_219153408" class="cls-1" d="M163.95,374.39c-4.64,0-8.42,3.78-8.42,8.42s3.78,8.42,8.42,8.42c4.65,0,8.42-3.78,8.42-8.42s-3.78-8.42-8.42-8.42ZM163.95,400.71c-9.87,0-17.9-8.03-17.9-17.9s8.03-17.9,17.9-17.9c9.87,0,17.9,8.03,17.9,17.9s-8.03,17.9-17.9,17.9Z"/><path id="_219153336" class="cls-1" d="M384.94,423.83h-51.71c-2.62,0-4.74-2.12-4.74-4.74,0-2.62,2.12-4.74,4.74-4.74h51.71c2.62,0,4.74,2.12,4.74,4.74s-2.12,4.74-4.74,4.74Z"/></g></g></g></svg>