<?xml version="1.0" encoding="UTF-8"?><svg id="Layer_1" xmlns="http://www.w3.org/2000/svg" viewBox="0 0 491.52 491.52"><defs><style>.cls-1{fill-rule:evenodd;}</style></defs><g id="Layer_1-2"><g id="_370919808"><path id="_370921008" class="cls-1" d="M77.8,196.41c-23.32,0-42.29,18.97-42.29,42.29v197.63c0,10.42,8.48,18.9,18.91,18.9h128.39c10.43,0,18.91-8.48,18.91-18.9v-197.63c0-23.32-18.97-42.29-42.29-42.29h-81.63ZM182.81,464.82H54.42c-15.72,0-28.51-12.79-28.51-28.5v-197.62c0-28.61,23.28-51.89,51.89-51.89h81.63c28.61,0,51.89,23.28,51.89,51.89v197.63c0,15.7-12.79,28.49-28.51,28.49Z"/><path id="_370920936" class="cls-1" d="M118.61,240.82c-30.53,0-55.38,38.13-55.38,85s24.85,85,55.38,85,55.39-38.13,55.39-85-24.85-85-55.39-85ZM118.61,420.42c-17.72,0-34.25-10.1-46.54-28.43-11.89-17.74-18.44-41.24-18.44-66.17s6.55-48.43,18.44-66.17c12.29-18.33,28.82-28.43,46.54-28.43s34.26,10.1,46.55,28.43c11.89,17.74,18.44,41.24,18.44,66.17s-6.55,48.43-18.44,66.17c-12.29,18.33-28.82,28.43-46.55,28.43h0Z"/><path id="_370920864" class="cls-1" d="M159.43,196.41c-2.65,0-4.8-2.15-4.8-4.8v-30.81c0-5.47-4.45-9.91-9.92-9.91h-52.19c-5.47,0-9.92,4.45-9.92,9.91v30.81c0,2.65-2.15,4.8-4.8,4.8s-4.8-2.15-4.8-4.8v-30.81c0-10.76,8.76-19.51,19.52-19.51h52.19c10.76,0,19.52,8.76,19.52,19.52v30.81c0,2.64-2.15,4.79-4.8,4.79Z"/><path id="_370920792" class="cls-1" d="M98.85,150.89c-2.65,0-4.8-2.15-4.8-4.8v-45.64c0-2.65,2.15-4.8,4.8-4.8s4.8,2.15,4.8,4.8v45.64c0,2.65-2.15,4.8-4.8,4.8ZM138.38,150.89c-2.65,0-4.8-2.15-4.8-4.8v-45.64c0-2.65,2.15-4.8,4.8-4.8s4.8,2.15,4.8,4.8v45.64c0,2.65-2.15,4.8-4.8,4.8Z"/><path id="_370920720" class="cls-1" d="M81.03,95.64h80.65c1.27,0,2.49.51,3.39,1.41l24.72,24.72c3.64,3.64,9.55,3.64,13.19,0,1.76-1.76,2.73-4.1,2.73-6.59s-.97-4.83-2.73-6.59l-28.86-28.86c-1.76-1.76-4.1-2.73-6.59-2.73h-86.5v18.64ZM196.38,134.1c-5.05,0-9.8-1.97-13.38-5.54l-23.31-23.31h-83.46c-2.65,0-4.8-2.15-4.8-4.8v-28.26c0-2.65,2.15-4.8,4.8-4.8h91.3c5.05,0,9.8,1.97,13.38,5.54l28.86,28.86c3.57,3.57,5.54,8.33,5.54,13.38s-1.97,9.81-5.54,13.38c-3.58,3.58-8.33,5.55-13.39,5.55Z"/><path id="_370920648" class="cls-1" d="M246.08,196.41l11.62,248.43c.28,5.83,5.06,10.39,10.89,10.39h164.68c5.84,0,10.62-4.56,10.89-10.39l11.62-248.43h-209.7ZM433.27,464.82h-164.68c-10.97,0-19.96-8.58-20.48-19.54l-11.85-253.45c-.07-1.31.41-2.59,1.32-3.54.9-.95,2.16-1.49,3.47-1.49h219.76c1.31,0,2.57.54,3.47,1.49.91.95,1.39,2.23,1.33,3.54l-11.86,253.45c-.51,10.96-9.51,19.54-20.48,19.54Z"/><path id="_370920576" class="cls-1" d="M286.09,245.49l7.57,161.68c.27,5.83,5.05,10.39,10.88,10.39h92.78c5.83,0,10.61-4.56,10.89-10.39l7.56-161.68c.15-3.14-.83-5.76-3-8.03s-4.74-3.37-7.88-3.37h-107.92c-3.13,0-5.71,1.1-7.88,3.37-2.16,2.26-3.15,4.89-3,8.03h0ZM397.32,427.16h-92.78c-10.97,0-19.96-8.58-20.47-19.54l-7.57-161.68c-.27-5.73,1.68-10.96,5.65-15.11,3.96-4.15,9.09-6.35,14.82-6.35h107.92c5.74,0,10.86,2.2,14.83,6.35,3.96,4.15,5.91,9.38,5.64,15.11l-7.56,161.68c-.51,10.95-9.51,19.54-20.48,19.54Z"/><path id="_370920504" class="cls-1" d="M448.29,196.41c-2.65,0-4.8-2.15-4.8-4.8V47.98c0-6.44-5.24-11.68-11.68-11.68h-11.68v155.31c0,2.65-2.15,4.8-4.8,4.8s-4.8-2.15-4.8-4.8V31.5c0-2.65,2.14-4.8,4.8-4.8h16.48c11.73,0,21.28,9.55,21.28,21.28v143.63c0,2.65-2.15,4.8-4.8,4.8h0Z"/><path id="_370920432" class="cls-1" d="M415.33,122.63h-50.23c-2.66,0-4.8-2.15-4.8-4.8V31.5c0-2.65,2.14-4.8,4.8-4.8h50.23c2.65,0,4.8,2.15,4.8,4.8s-2.15,4.8-4.8,4.8h-45.43v76.73h45.43c2.65,0,4.8,2.15,4.8,4.8s-2.15,4.8-4.8,4.8Z"/><path id="_370920360" class="cls-1" d="M415.33,65.07h-29.06c-2.65,0-4.8-2.15-4.8-4.8s2.15-4.8,4.8-4.8h29.06c2.65,0,4.8,2.15,4.8,4.8s-2.15,4.8-4.8,4.8Z"/><path id="_370920288" class="cls-1" d="M415.33,93.85h-29.06c-2.65,0-4.8-2.15-4.8-4.8s2.15-4.8,4.8-4.8h29.06c2.65,0,4.8,2.15,4.8,4.8s-2.15,4.8-4.8,4.8Z"/><path id="_370920216" class="cls-1" d="M349.33,196.41c-2.36,0-4.41-1.74-4.75-4.14l-9.99-71.57c-.81-5.84-5.68-10.08-11.58-10.08h-43.11c-5.9,0-10.77,4.24-11.59,10.08l-9.98,71.57c-.37,2.63-2.8,4.46-5.42,4.09-2.63-.37-4.46-2.79-4.09-5.42l9.99-71.57c1.48-10.63,10.35-18.35,21.09-18.35h43.11c10.74,0,19.61,7.72,21.09,18.35l9.99,71.57c.37,2.63-1.47,5.05-4.09,5.42-.23.03-.45.05-.67.05Z"/><path id="_370920144" class="cls-1" d="M323.01,110.62c-2.65,0-4.8-2.15-4.8-4.8v-29.49c0-3.84-3.12-6.95-6.96-6.95h-19.6c-3.83,0-6.95,3.12-6.95,6.96v29.49c0,2.65-2.15,4.8-4.8,4.8s-4.8-2.15-4.8-4.8v-29.49c0-9.13,7.42-16.55,16.55-16.55h19.6c9.13,0,16.56,7.43,16.56,16.56v29.49c0,2.63-2.15,4.78-4.8,4.78h0Z"/><path id="_370920048" class="cls-1" d="M383.89,307.85h-65.92c-2.65,0-4.8-2.15-4.8-4.8s2.15-4.8,4.8-4.8h65.92c2.66,0,4.8,2.15,4.8,4.8s-2.14,4.81-4.8,4.8Z"/><path id="_370920000" class="cls-1" d="M383.89,353.38h-65.92c-2.65,0-4.8-2.15-4.8-4.8s2.15-4.8,4.8-4.8h65.92c2.66,0,4.8,2.15,4.8,4.8s-2.14,4.8-4.8,4.8Z"/><path id="_370919904" d="M122.5,283.5c24.6,28.28,30.12,49.86,26.36,64.3-3.86,14.87-17.07,22.31-30.25,22.31s-26.38-7.44-30.25-22.31c-3.77-14.5,1.81-36.18,26.64-64.62h-.01c1.74-2.01,4.78-2.21,6.77-.47.29.24.53.5.74.79ZM139.6,345.4c2.89-11.14-1.65-28.26-20.98-51.69-19.33,23.43-23.88,40.54-20.98,51.69,2.62,10.07,11.79,15.11,20.98,15.11,9.19-.01,18.37-5.04,20.98-15.11Z"/></g></g></svg>