<?xml version="1.0" encoding="UTF-8"?><svg id="Layer_1" xmlns="http://www.w3.org/2000/svg" viewBox="0 0 512 512"><path d="M504,275.3c0-73.35-59.67-133.02-133.02-133.02-23.71,0-46.47,6.15-66.64,17.88v-5.59c0-1.54-.44-3.04-1.28-4.34l-39.82-61.7c.63-3.59.98-7.68.98-12.37,0-19.08-15.52-34.6-34.6-34.6-2.04,0-4.04.19-5.98.53-7.85-11.72-19.45-16.1-33.25-12.35-4.26,1.16-6.78,5.56-5.62,9.82s5.55,6.78,9.82,5.62c4.7-1.28,9.57-1.55,14.03,3.51-8.26,6.33-13.6,16.29-13.6,27.48,0,.78.05,1.55.12,2.31L13.18,147.08c-3.11,1.17-5.18,4.15-5.18,7.49v133.84c0,4.42,3.58,8,8,8h223.66c1.21,7.58,3.07,15.04,5.57,22.29-1.24.19-2.49.4-3.74.65-24.94-13.4-48.77-12.71-70.93,2.05-34.28-1.34-55.42,2.15-72.27,22.88-19.6,5.33-35.28,16.24-45.45,31.67-9.47,14.36-13.57,31.85-11.55,49.25,1.83,15.7,8.59,30.08,19.04,40.51,11.65,11.61,27.11,17.79,44.76,17.88h182.91c73.99,0,85.59-38.08,87.14-54.45.65-6.86.08-13.89-1.51-20.84,72.13-1.42,130.37-60.52,130.37-132.98h0ZM428.81,173.6c-6.25,1.35-10.22,4.59-13.3,7.11-3.24,2.66-5.02,4.12-9.32,4.12s-6.08-1.46-9.32-4.12c-3.99-3.27-9.45-7.75-19.47-7.75s-15.48,4.48-19.47,7.75c-3.24,2.66-5.02,4.12-9.32,4.12s-6.08-1.46-9.32-4.12c-3.99-3.27-9.45-7.75-19.47-7.75-2.64,0-4.94.29-6.98.77,17.62-10.14,37.48-15.45,58.16-15.45,21.02,0,40.76,5.57,57.82,15.32h0ZM288.34,162.57v4.49c-3.6,1.88-6.26,4.18-8.53,6.15-3.95,3.42-6.33,5.48-12.98,5.48s-9.16-2.31-13.43-5.81c-5.13-4.21-11.51-9.44-23.58-9.44s-18.45,5.24-23.58,9.44c-4.27,3.5-7.09,5.81-13.43,5.81s-9.16-2.31-13.43-5.81c-5.13-4.21-11.51-9.44-23.58-9.44s-18.45,5.24-23.58,9.44c-4.27,3.5-7.09,5.81-13.43,5.81s-9.17-2.31-13.43-5.81c-5.13-4.21-11.51-9.44-23.58-9.44s-18.45,5.24-23.58,9.44c-4.27,3.5-7.09,5.81-13.43,5.81-6.69,0-9.01-2.03-12.86-5.4-2.12-1.85-4.6-3.99-7.9-5.82v-4.9h264.34ZM288.34,213.49H24v-25.91c4.41,3.58,10.28,7.11,20.75,7.11,12.07,0,18.45-5.24,23.58-9.44,4.27-3.5,7.09-5.81,13.43-5.81s9.17,2.31,13.43,5.81c5.13,4.21,11.51,9.44,23.58,9.44s18.45-5.24,23.58-9.44c4.27-3.5,7.09-5.81,13.43-5.81s9.16,2.31,13.43,5.81c5.13,4.21,11.51,9.44,23.58,9.44s18.45-5.24,23.58-9.44c4.27-3.5,7.09-5.81,13.43-5.81s9.16,2.31,13.43,5.81c5.13,4.21,11.51,9.44,23.58,9.44,10.99,0,16.97-3.95,21.51-7.73v26.53h0ZM24,229.49h264.34v5.39c-3.6,1.88-6.26,4.18-8.53,6.15-3.95,3.42-6.33,5.48-12.98,5.48s-9.16-2.31-13.43-5.81c-5.13-4.21-11.51-9.44-23.58-9.44s-18.45,5.24-23.58,9.44c-4.27,3.5-7.09,5.81-13.43,5.81s-9.16-2.31-13.43-5.81c-5.13-4.21-11.51-9.44-23.58-9.44s-18.45,5.24-23.58,9.44c-4.27,3.5-7.09,5.81-13.43,5.81s-9.17-2.31-13.43-5.81c-5.13-4.21-11.51-9.44-23.58-9.44s-18.45,5.24-23.58,9.44c-4.27,3.5-7.09,5.81-13.43,5.81-6.69,0-9.01-2.03-12.86-5.4-2.12-1.85-4.6-3.99-7.9-5.82v-5.8h0ZM248.23,76.17c0,20.99-7.46,20.99-10.27,20.99-11.58,0-26.94-11.96-26.94-20.99,0-10.26,8.35-18.6,18.6-18.6s18.6,8.34,18.6,18.6ZM237.96,113.15c5.12,0,12.05-1.32,17.51-7.15l26.18,40.57H59.9l141.21-53.24c8.35,11.55,23.81,19.82,36.85,19.82ZM24,255.4c4.41,3.58,10.28,7.11,20.75,7.11,12.07,0,18.45-5.23,23.58-9.44,4.27-3.5,7.09-5.81,13.43-5.81s9.17,2.31,13.43,5.81c5.13,4.21,11.51,9.44,23.58,9.44s18.45-5.23,23.58-9.44c4.27-3.5,7.09-5.81,13.43-5.81s9.16,2.31,13.43,5.81c5.13,4.21,11.51,9.44,23.58,9.44s18.45-5.23,23.58-9.44c4.27-3.5,7.09-5.81,13.43-5.81s9.16,2.31,13.43,5.81c5.13,4.21,11.51,9.44,23.58,9.44,10.99,0,16.97-3.95,21.52-7.73v25.63H24v-25ZM219.24,327.54c3.48.91,7.01,2.2,10.6,3.87-7.59,17.51-12.05,34.12-13.11,48.43-3.32-9.46-3.77-25.26,2.51-52.3h0ZM158.43,337.13c.96,0,1.95,0,2.96.02-4.56,14.95-5.92,33.23-3.83,49.34-.3-.39-.59-.79-.87-1.21-7.6-11.08-10.29-29.06-7.4-47.92,2.84-.15,5.87-.23,9.14-.23h0ZM86.63,407.91s-.03-.04-.05-.07c-5.46-7.57-6.96-21.04-4.39-39.09,2.46-1.64,5.11-3.14,7.96-4.5-3.72,14.58-4.96,30.5-3.52,43.65ZM359.21,427.61c-2.44,25.77-27.73,39.96-71.21,39.96H105.13c-29.58-.15-45.4-22.32-47.95-44.24-1.42-12.17.94-25.3,7.78-36.68.27,12.8,3.12,22.9,8.64,30.54,5.63,7.81,13.75,12.6,24.14,14.26.42.07.84.1,1.26.1,2.58,0,5.03-1.25,6.54-3.4,1.76-2.5,1.94-5.78.46-8.46-6.03-10.95-5.59-41.84,3.86-64.3,6.27-8.08,12.96-13.03,22.96-15.7-2.38,21.25,1.37,41.1,10.65,54.64,6.38,9.3,15.04,15.07,25.04,16.66.42.07.84.1,1.26.1,2.4,0,4.71-1.08,6.24-2.99,1.8-2.24,2.26-5.27,1.2-7.95-7.74-19.58-5.22-48.89,2-65.32,7.78-5.21,15.72-8.14,23.92-8.81-7.15,31.58-10.29,69.85,20.13,82.14.97.39,1.99.58,3,.58,1.94,0,3.85-.71,5.35-2.05,2.27-2.04,3.18-5.2,2.35-8.14-4.15-14.55.29-38.18,11.86-63.76,9.23-1.66,18.09-1,26.68,1.99-7.95,20.04-11.89,36.39-12.02,49.8-.15,16.75,5.71,28.76,17.44,35.69,1.26.74,2.66,1.11,4.07,1.11,1.54,0,3.07-.44,4.4-1.32,2.55-1.68,3.92-4.67,3.53-7.7-1.83-14.16,5.1-34.97,18.64-56.41,13.04,3.89,25.76,13.01,35.54,25.62,10.91,14.07,16.4,30.11,15.09,44.02h0ZM286.84,344.12c2.61,1.77,5.2,3.77,7.77,6.01-8.58,13.7-14.69,27.18-18.02,39.53-.7-13,4.17-29.92,10.24-45.54ZM370.98,392.32c-.95,0-1.91-.02-2.88-.05-6.24-13.55-16.11-26.01-28.04-35.38,4-1.32,6.33-5.54,5.22-9.66-1.14-4.27-5.53-6.8-9.8-5.66l-14.53,3.89c-3.93-1.68-7.96-3.03-12.07-3.98-1.29-1.23-2.59-2.41-3.9-3.54l9.92-9.92c3.12-3.12,3.12-8.19,0-11.31-3.12-3.12-8.19-3.12-11.31,0l-11.68,11.68c-9.58-5.78-19.54-9.18-29.82-10.17-2.79-7.06-4.87-14.36-6.23-21.81h18.45c.37,1.22,1.03,2.38,2,3.34l15.66,15.66c1.56,1.56,3.61,2.34,5.66,2.34s4.1-.78,5.66-2.34c3.12-3.12,3.12-8.19,0-11.31l-7.69-7.69h.73c4.42,0,8-3.58,8-8v-90.85c2.67-1.47,4.69-3.21,6.45-4.71,3.01-2.59,4.52-3.88,9.01-3.88s6.08,1.46,9.32,4.12c3.99,3.27,9.45,7.75,19.47,7.75s15.48-4.48,19.47-7.75c3.24-2.66,5.02-4.12,9.32-4.12s6.09,1.46,9.33,4.12c3.99,3.27,9.45,7.75,19.47,7.75s15.48-4.48,19.47-7.75c3.24-2.66,5.02-4.12,9.33-4.12,4.3,0,6.08,1.46,9.32,4.12,3.61,2.96,8.44,6.9,16.76,7.62,16.81,20.27,26.93,46.27,26.93,74.6,0,64.52-52.49,117.02-117.02,117.02h0ZM370.98,216.37c-32.5,0-58.93,26.44-58.93,58.93s26.44,58.93,58.93,58.93,58.93-26.44,58.93-58.93-26.44-58.93-58.93-58.93h0ZM370.98,318.23c-23.67,0-42.93-19.26-42.93-42.93s19.26-42.93,42.93-42.93,42.93,19.26,42.93,42.93-19.26,42.93-42.93,42.93h0ZM407.25,218.02c-1.14-4.27,1.39-8.65,5.66-9.8l21.39-5.73c4.27-1.14,8.65,1.39,9.8,5.66,1.14,4.27-1.39,8.65-5.66,9.8l-21.39,5.73c-.69.19-1.39.27-2.08.27-3.53,0-6.76-2.36-7.72-5.93ZM388.96,363.14c3.12,3.12,3.12,8.19,0,11.31-1.56,1.56-3.61,2.34-5.66,2.34s-4.1-.78-5.66-2.34l-15.66-15.66c-3.12-3.12-3.12-8.19,0-11.31,3.12-3.12,8.19-3.12,11.31,0l15.66,15.66ZM470.02,281.34c1.14,4.27-1.39,8.65-5.66,9.8l-21.39,5.73c-.69.19-1.39.27-2.08.27-3.53,0-6.77-2.36-7.72-5.93-1.14-4.27,1.39-8.65,5.66-9.8l21.39-5.73c4.27-1.14,8.65,1.39,9.8,5.66h0ZM456.38,335.15c1.14,4.27-1.39,8.65-5.66,9.8-.69.19-1.39.27-2.08.27-3.53,0-6.77-2.36-7.72-5.93l-5.73-21.39c-1.14-4.27,1.39-8.65,5.66-9.8,4.27-1.14,8.65,1.39,9.8,5.66l5.73,21.39ZM427.44,333.29c3.12,3.12,3.12,8.19,0,11.31l-15.66,15.66c-1.56,1.56-3.61,2.34-5.66,2.34s-4.1-.78-5.66-2.34c-3.12-3.12-3.12-8.19,0-11.31l15.66-15.66c3.12-3.12,8.19-3.12,11.31,0h0ZM442.07,231.21c3.12-3.12,8.19-3.12,11.31,0l15.66,15.66c3.12,3.12,3.12,8.19,0,11.31-1.56,1.56-3.61,2.34-5.66,2.34s-4.1-.78-5.66-2.34l-15.66-15.66c-3.12-3.12-3.12-8.19,0-11.31h0Z"/></svg>